# xmcd CD database file
#
# Track frame offsets:
#	150
#	20340
#	39797
#	63064
#	83010
#	103052
#	126080
#	146772
#	163815
#	181670
#
# Disc length: 2691 seconds
#
# Revision: 1
# Processed by: cddbd v1.4PL0 Copyright (c) Steve Scherf et al.
# Submitted via: CDex 1.40Release
#
DISCID=750a810a
DTITLE=Thanh Truc - Em Van Mo
DYEAR=1900
DGENRE=Pop
TTITLE0=Em Van Mo
TTITLE1=Men Tinh Hong
TTITLE2=Xa Nhau Mua Thu
TTITLE3=Mua He Dep Nhat
TTITLE4=Noi Di Anh
TTITLE5=Quan Ca Phe Vang
TTITLE6=Cho Tieng Yeu Dau
TTITLE7=It Feels Like Heaven
TTITLE8=Vo Cung
TTITLE9=Tinh Me
EXTD=ID3G: 13
EXTT0=
EXTT1=
EXTT2=
EXTT3=
EXTT4=
EXTT5=
EXTT6=
EXTT7=
EXTT8=
EXTT9=
PLAYORDER=
